# MagicaVoxel @ Ephtracy

# group
o 

# material
mtllib Bunny.mtl
usemtl palette

# normals
vn -1 0 0
vn 1 0 0
vn 0 0 1
vn 0 0 -1
vn 0 -1 0
vn 0 1 0

# texcoords
vt 0.00195313 0.5
vt 0.0292969 0.5
vt 0.853516 0.5
vt 0.978516 0.5
vt 0.994141 0.5

# verts
v -1 1.8 -0.1
v -1 1.8 -0.3
v -1 2.2 -0.1
v -1 2.2 -0.3
v -0.8 1.6 -0.1
v -0.8 1.6 -0.3
v -0.8 1.8 -0.1
v -0.8 1.8 -0.3
v -0.6 1.4 -0.1
v -0.6 1.4 -0.3
v -0.6 1.6 -0.1
v -0.6 1.6 -0.3
v -0.4 0 0.1
v -0.4 0 -0.1
v -0.4 0 -0.3
v -0.4 0.2 0.1
v -0.4 0.2 -0.1
v -0.4 0.4 -0.1
v -0.4 0.4 -0.3
v -0.4 0.8 0.3
v -0.4 0.8 -0.3
v -0.4 1 0.3
v -0.4 1 0.1
v -0.4 1.2 0.3
v -0.4 1.2 0.1
v -0.4 1.4 0.3
v -0.4 1.4 -0.1
v -0.4 1.4 -0.3
v -0.2 0.2 0.3
v -0.2 0.2 0.1
v -0.2 0.2 -0.1
v -0.2 0.2 -0.3
v -0.2 0.2 -0.5
v -0.2 0.3 0.3
v -0.2 0.3 0.1
v -0.2 0.4 -0.1
v -0.2 0.4 -0.3
v -0.2 0.4 -0.5
v -0.2 0.6 0.3
v -0.2 0.6 0.1
v -0.2 0.8 0.1
v -0.2 0.8 -0.3
v 0.2 0 0.1
v 0.2 0 -0.1
v 0.2 0 -0.3
v 0.2 0.2 0.1
v 0.2 0.2 -0.1
v 0.2 0.2 -0.3
v 0.2 1.4 -0.1
v 0.2 1.4 -0.3
v 0.2 2 -0.1
v 0.2 2 -0.3
v 0.4 2 -0.1
v 0.4 2 -0.3
v 0.4 2.2 -0.1
v 0.4 2.2 -0.3
v -0.4 2 -0.1
v -0.4 2 -0.3
v -0.4 2.2 -0.1
v -0.4 2.2 -0.3
v -0.2 0 0.1
v -0.2 0 -0.1
v -0.2 0 -0.3
v -0.2 0.2 0.1
v -0.2 0.2 -0.1
v -0.2 0.2 -0.3
v -0.2 1.4 -0.1
v -0.2 1.4 -0.3
v -0.2 2 -0.1
v -0.2 2 -0.3
v 0.2 0.2 0.3
v 0.2 0.2 0.1
v 0.2 0.2 -0.1
v 0.2 0.2 -0.3
v 0.2 0.2 -0.5
v 0.2 0.3 0.3
v 0.2 0.3 0.1
v 0.2 0.4 -0.1
v 0.2 0.4 -0.3
v 0.2 0.4 -0.5
v 0.2 0.6 0.3
v 0.2 0.6 0.1
v 0.2 0.8 0.1
v 0.2 0.8 -0.3
v 0.4 0 0.1
v 0.4 0 -0.1
v 0.4 0 -0.3
v 0.4 0.2 0.1
v 0.4 0.2 -0.1
v 0.4 0.4 -0.1
v 0.4 0.4 -0.3
v 0.4 0.8 0.3
v 0.4 0.8 -0.3
v 0.4 1 0.3
v 0.4 1 0.1
v 0.4 1.2 0.3
v 0.4 1.2 0.1
v 0.4 1.4 0.3
v 0.4 1.4 -0.1
v 0.4 1.4 -0.3
v 0.6 1.4 -0.1
v 0.6 1.4 -0.3
v 0.6 1.6 -0.1
v 0.6 1.6 -0.3
v 0.8 1.6 -0.1
v 0.8 1.6 -0.3
v 0.8 1.8 -0.1
v 0.8 1.8 -0.3
v 1 1.8 -0.1
v 1 1.8 -0.3
v 1 2.2 -0.1
v 1 2.2 -0.3
v -0.4 0.8 0.3
v -0.4 1 0.3
v -0.4 1.2 0.3
v -0.4 1.4 0.3
v -0.2 0.2 0.3
v -0.2 0.3 0.3
v -0.2 0.6 0.3
v -0.2 0.8 0.3
v -0.2 0.9 0.3
v -0.2 1 0.3
v -0.2 1.2 0.3
v -0.1 0.9 0.3
v -0.1 1 0.3
v 0 0.8 0.3
v 0 0.9 0.3
v 0.1 0.8 0.3
v 0.1 0.9 0.3
v 0.1 1 0.3
v 0.2 0.2 0.3
v 0.2 0.3 0.3
v 0.2 0.6 0.3
v 0.2 0.8 0.3
v 0.2 0.9 0.3
v 0.2 1 0.3
v 0.2 1.2 0.3
v 0.4 0.8 0.3
v 0.4 1 0.3
v 0.4 1.2 0.3
v 0.4 1.4 0.3
v -0.4 0 0.1
v -0.4 0.2 0.1
v -0.2 0 0.1
v -0.2 0.2 0.1
v -0.2 0.6 0.1
v -0.2 0.8 0.1
v 0.2 0 0.1
v 0.2 0.2 0.1
v 0.2 0.6 0.1
v 0.2 0.8 0.1
v 0.4 0 0.1
v 0.4 0.2 0.1
v -1 1.8 -0.1
v -1 2.2 -0.1
v -0.8 1.6 -0.1
v -0.8 1.8 -0.1
v -0.8 2 -0.1
v -0.6 1.4 -0.1
v -0.6 1.6 -0.1
v -0.6 1.8 -0.1
v -0.6 2 -0.1
v -0.4 0.2 -0.1
v -0.4 0.4 -0.1
v -0.4 1.4 -0.1
v -0.4 1.6 -0.1
v -0.4 1.8 -0.1
v -0.4 2 -0.1
v -0.4 2.2 -0.1
v -0.2 0.2 -0.1
v -0.2 0.4 -0.1
v -0.2 1.4 -0.1
v -0.2 2 -0.1
v 0.2 0.2 -0.1
v 0.2 0.4 -0.1
v 0.2 1.4 -0.1
v 0.2 2 -0.1
v 0.4 0.2 -0.1
v 0.4 0.4 -0.1
v 0.4 1.4 -0.1
v 0.4 1.6 -0.1
v 0.4 1.8 -0.1
v 0.4 2 -0.1
v 0.4 2.2 -0.1
v 0.6 1.4 -0.1
v 0.6 1.6 -0.1
v 0.6 1.8 -0.1
v 0.6 2 -0.1
v 0.8 1.6 -0.1
v 0.8 1.8 -0.1
v 0.8 2 -0.1
v 1 1.8 -0.1
v 1 2.2 -0.1
v -1 1.8 -0.3
v -1 2.2 -0.3
v -0.8 1.6 -0.3
v -0.8 1.8 -0.3
v -0.8 2 -0.3
v -0.6 1.4 -0.3
v -0.6 1.6 -0.3
v -0.6 1.8 -0.3
v -0.6 2 -0.3
v -0.4 0 -0.3
v -0.4 0.4 -0.3
v -0.4 0.8 -0.3
v -0.4 1.4 -0.3
v -0.4 1.6 -0.3
v -0.4 1.8 -0.3
v -0.4 2 -0.3
v -0.4 2.2 -0.3
v -0.2 0 -0.3
v -0.2 0.2 -0.3
v -0.2 0.4 -0.3
v -0.2 0.8 -0.3
v -0.2 1.4 -0.3
v -0.2 2 -0.3
v 0.2 0 -0.3
v 0.2 0.2 -0.3
v 0.2 0.4 -0.3
v 0.2 0.8 -0.3
v 0.2 1.4 -0.3
v 0.2 2 -0.3
v 0.4 0 -0.3
v 0.4 0.4 -0.3
v 0.4 0.8 -0.3
v 0.4 1.4 -0.3
v 0.4 1.6 -0.3
v 0.4 1.8 -0.3
v 0.4 2 -0.3
v 0.4 2.2 -0.3
v 0.6 1.4 -0.3
v 0.6 1.6 -0.3
v 0.6 1.8 -0.3
v 0.6 2 -0.3
v 0.8 1.6 -0.3
v 0.8 1.8 -0.3
v 0.8 2 -0.3
v 1 1.8 -0.3
v 1 2.2 -0.3
v -0.2 0.2 -0.5
v -0.2 0.4 -0.5
v 0.2 0.2 -0.5
v 0.2 0.4 -0.5
v -0.4 0 0.1
v -0.2 0 0.1
v 0.2 0 0.1
v 0.4 0 0.1
v -0.4 0 -0.1
v -0.2 0 -0.1
v 0.2 0 -0.1
v 0.4 0 -0.1
v -0.4 0 -0.3
v -0.2 0 -0.3
v 0.2 0 -0.3
v 0.4 0 -0.3
v -0.2 0.2 0.3
v 0.2 0.2 0.3
v -0.2 0.2 0.1
v 0.2 0.2 0.1
v -0.2 0.2 -0.1
v 0.2 0.2 -0.1
v -0.2 0.2 -0.3
v 0.2 0.2 -0.3
v -0.2 0.2 -0.5
v 0.2 0.2 -0.5
v -0.4 0.8 0.3
v -0.2 0.8 0.3
v 0 0.8 0.3
v 0.1 0.8 0.3
v 0.2 0.8 0.3
v 0.4 0.8 0.3
v 0 0.8 0.2
v 0.1 0.8 0.2
v -0.2 0.8 0.1
v 0.2 0.8 0.1
v -0.4 0.8 -0.3
v -0.2 0.8 -0.3
v 0.2 0.8 -0.3
v 0.4 0.8 -0.3
v -0.6 1.4 -0.1
v -0.4 1.4 -0.1
v 0.4 1.4 -0.1
v 0.6 1.4 -0.1
v -0.6 1.4 -0.3
v -0.4 1.4 -0.3
v 0.4 1.4 -0.3
v 0.6 1.4 -0.3
v -0.8 1.6 -0.1
v -0.6 1.6 -0.1
v 0.6 1.6 -0.1
v 0.8 1.6 -0.1
v -0.8 1.6 -0.3
v -0.6 1.6 -0.3
v 0.6 1.6 -0.3
v 0.8 1.6 -0.3
v -1 1.8 -0.1
v -0.8 1.8 -0.1
v 0.8 1.8 -0.1
v 1 1.8 -0.1
v -1 1.8 -0.3
v -0.8 1.8 -0.3
v 0.8 1.8 -0.3
v 1 1.8 -0.3
v -0.4 0.2 0.1
v -0.2 0.2 0.1
v 0.2 0.2 0.1
v 0.4 0.2 0.1
v -0.4 0.2 -0.1
v -0.2 0.2 -0.1
v 0.2 0.2 -0.1
v 0.4 0.2 -0.1
v -0.4 0.4 -0.1
v -0.2 0.4 -0.1
v 0.2 0.4 -0.1
v 0.4 0.4 -0.1
v -0.4 0.4 -0.3
v -0.2 0.4 -0.3
v 0.2 0.4 -0.3
v 0.4 0.4 -0.3
v -0.2 0.4 -0.5
v 0.2 0.4 -0.5
v -0.2 0.6 0.3
v 0.2 0.6 0.3
v -0.2 0.6 0.1
v 0.2 0.6 0.1
v -0.4 1.4 0.3
v 0.4 1.4 0.3
v -0.4 1.4 -0.1
v -0.2 1.4 -0.1
v 0.2 1.4 -0.1
v 0.4 1.4 -0.1
v -0.2 1.4 -0.3
v 0.2 1.4 -0.3
v -0.4 2 -0.1
v -0.2 2 -0.1
v 0.2 2 -0.1
v 0.4 2 -0.1
v -0.4 2 -0.3
v -0.2 2 -0.3
v 0.2 2 -0.3
v 0.4 2 -0.3
v -1 2.2 -0.1
v -0.4 2.2 -0.1
v 0.4 2.2 -0.1
v 1 2.2 -0.1
v -1 2.2 -0.3
v -0.4 2.2 -0.3
v 0.4 2.2 -0.3
v 1 2.2 -0.3

# faces
f 3/4/1 2/4/1 1/4/1
f 4/4/1 2/4/1 3/4/1
f 7/4/1 6/4/1 5/4/1
f 8/4/1 6/4/1 7/4/1
f 11/4/1 10/4/1 9/4/1
f 12/4/1 10/4/1 11/4/1
f 16/1/1 14/1/1 13/1/1
f 17/4/1 15/4/1 14/4/1
f 17/1/1 14/1/1 16/1/1
f 18/4/1 15/4/1 17/4/1
f 19/4/1 15/4/1 18/4/1
f 22/4/1 21/4/1 20/4/1
f 23/4/1 21/4/1 22/4/1
f 24/5/1 23/5/1 22/5/1
f 25/4/1 21/4/1 23/4/1
f 25/5/1 23/5/1 24/5/1
f 26/4/1 25/4/1 24/4/1
f 27/4/1 21/4/1 25/4/1
f 27/4/1 25/4/1 26/4/1
f 28/4/1 21/4/1 27/4/1
f 34/1/1 30/1/1 29/1/1
f 35/4/1 31/4/1 30/4/1
f 35/1/1 30/1/1 34/1/1
f 36/4/1 35/4/1 34/4/1
f 36/4/1 31/4/1 35/4/1
f 37/1/1 33/1/1 32/1/1
f 38/1/1 33/1/1 37/1/1
f 39/4/1 36/4/1 34/4/1
f 39/4/1 37/4/1 36/4/1
f 40/4/1 37/4/1 39/4/1
f 41/4/1 37/4/1 40/4/1
f 42/4/1 37/4/1 41/4/1
f 46/1/1 44/1/1 43/1/1
f 47/4/1 45/4/1 44/4/1
f 47/1/1 44/1/1 46/1/1
f 48/4/1 45/4/1 47/4/1
f 51/4/1 50/4/1 49/4/1
f 52/4/1 50/4/1 51/4/1
f 55/4/1 54/4/1 53/4/1
f 56/4/1 54/4/1 55/4/1
f 57/4/2 58/4/2 59/4/2
f 59/4/2 58/4/2 60/4/2
f 61/1/2 62/1/2 64/1/2
f 62/4/2 63/4/2 65/4/2
f 64/1/2 62/1/2 65/1/2
f 65/4/2 63/4/2 66/4/2
f 67/4/2 68/4/2 69/4/2
f 69/4/2 68/4/2 70/4/2
f 71/1/2 72/1/2 76/1/2
f 72/4/2 73/4/2 77/4/2
f 76/1/2 72/1/2 77/1/2
f 76/4/2 77/4/2 78/4/2
f 77/4/2 73/4/2 78/4/2
f 74/1/2 75/1/2 79/1/2
f 79/1/2 75/1/2 80/1/2
f 76/4/2 78/4/2 81/4/2
f 78/4/2 79/4/2 81/4/2
f 81/4/2 79/4/2 82/4/2
f 82/4/2 79/4/2 83/4/2
f 83/4/2 79/4/2 84/4/2
f 85/1/2 86/1/2 88/1/2
f 86/4/2 87/4/2 89/4/2
f 88/1/2 86/1/2 89/1/2
f 89/4/2 87/4/2 90/4/2
f 90/4/2 87/4/2 91/4/2
f 92/4/2 93/4/2 94/4/2
f 94/4/2 93/4/2 95/4/2
f 94/5/2 95/5/2 96/5/2
f 95/4/2 93/4/2 97/4/2
f 96/5/2 95/5/2 97/5/2
f 96/4/2 97/4/2 98/4/2
f 97/4/2 93/4/2 99/4/2
f 98/4/2 97/4/2 99/4/2
f 99/4/2 93/4/2 100/4/2
f 101/4/2 102/4/2 103/4/2
f 103/4/2 102/4/2 104/4/2
f 105/4/2 106/4/2 107/4/2
f 107/4/2 106/4/2 108/4/2
f 109/4/2 110/4/2 111/4/2
f 111/4/2 110/4/2 112/4/2
f 120/4/3 114/4/3 113/4/3
f 121/4/3 114/4/3 120/4/3
f 122/5/3 115/5/3 114/5/3
f 122/4/3 114/4/3 121/4/3
f 123/4/3 116/4/3 115/4/3
f 123/5/3 115/5/3 122/5/3
f 124/3/3 121/3/3 120/3/3
f 124/1/3 122/1/3 121/1/3
f 125/4/3 123/4/3 122/4/3
f 125/1/3 122/1/3 124/1/3
f 126/3/3 124/3/3 120/3/3
f 126/3/3 125/3/3 124/3/3
f 127/3/3 125/3/3 126/3/3
f 128/1/3 127/1/3 126/1/3
f 129/3/3 125/3/3 127/3/3
f 129/1/3 127/1/3 128/1/3
f 130/4/3 123/4/3 125/4/3
f 130/3/3 125/3/3 129/3/3
f 131/1/3 118/1/3 117/1/3
f 132/4/3 119/4/3 118/4/3
f 132/1/3 118/1/3 131/1/3
f 133/4/3 119/4/3 132/4/3
f 134/3/3 129/3/3 128/3/3
f 135/1/3 130/1/3 129/1/3
f 135/3/3 129/3/3 134/3/3
f 136/4/3 123/4/3 130/4/3
f 136/1/3 130/1/3 135/1/3
f 137/4/3 116/4/3 123/4/3
f 137/4/3 123/4/3 136/4/3
f 138/4/3 136/4/3 135/4/3
f 138/4/3 135/4/3 134/4/3
f 139/5/3 137/5/3 136/5/3
f 139/4/3 136/4/3 138/4/3
f 140/4/3 116/4/3 137/4/3
f 140/5/3 137/5/3 139/5/3
f 141/4/3 116/4/3 140/4/3
f 144/1/3 143/1/3 142/1/3
f 145/1/3 143/1/3 144/1/3
f 150/4/3 147/4/3 146/4/3
f 151/4/3 147/4/3 150/4/3
f 152/1/3 149/1/3 148/1/3
f 153/1/3 149/1/3 152/1/3
f 157/4/3 155/4/3 154/4/3
f 158/4/3 155/4/3 157/4/3
f 160/4/3 157/4/3 156/4/3
f 161/2/3 158/2/3 157/2/3
f 161/4/3 157/4/3 160/4/3
f 162/4/3 155/4/3 158/4/3
f 162/2/3 158/2/3 161/2/3
f 165/4/3 160/4/3 159/4/3
f 166/2/3 161/2/3 160/2/3
f 166/4/3 160/4/3 165/4/3
f 167/4/3 162/4/3 161/4/3
f 167/2/3 161/2/3 166/2/3
f 168/4/3 155/4/3 162/4/3
f 168/4/3 162/4/3 167/4/3
f 169/4/3 155/4/3 168/4/3
f 170/4/3 164/4/3 163/4/3
f 171/4/3 164/4/3 170/4/3
f 172/4/3 166/4/3 165/4/3
f 172/4/3 167/4/3 166/4/3
f 172/4/3 168/4/3 167/4/3
f 173/4/3 168/4/3 172/4/3
f 178/4/3 175/4/3 174/4/3
f 179/4/3 175/4/3 178/4/3
f 180/4/3 177/4/3 176/4/3
f 181/4/3 177/4/3 180/4/3
f 182/4/3 177/4/3 181/4/3
f 183/4/3 177/4/3 182/4/3
f 185/4/3 181/4/3 180/4/3
f 186/2/3 182/2/3 181/2/3
f 186/4/3 181/4/3 185/4/3
f 187/4/3 183/4/3 182/4/3
f 187/2/3 182/2/3 186/2/3
f 187/4/3 184/4/3 183/4/3
f 188/4/3 184/4/3 187/4/3
f 189/4/3 187/4/3 186/4/3
f 190/2/3 188/2/3 187/2/3
f 190/4/3 187/4/3 189/4/3
f 191/4/3 184/4/3 188/4/3
f 191/2/3 188/2/3 190/2/3
f 192/4/3 191/4/3 190/4/3
f 193/4/3 184/4/3 191/4/3
f 193/4/3 191/4/3 192/4/3
f 194/4/4 195/4/4 197/4/4
f 197/4/4 195/4/4 198/4/4
f 196/4/4 197/4/4 200/4/4
f 197/2/4 198/2/4 201/2/4
f 200/4/4 197/4/4 201/4/4
f 198/4/4 195/4/4 202/4/4
f 201/2/4 198/2/4 202/2/4
f 199/4/4 200/4/4 206/4/4
f 200/2/4 201/2/4 207/2/4
f 206/4/4 200/4/4 207/4/4
f 201/4/4 202/4/4 208/4/4
f 207/2/4 201/2/4 208/2/4
f 202/4/4 195/4/4 209/4/4
f 208/4/4 202/4/4 209/4/4
f 209/4/4 195/4/4 210/4/4
f 203/4/4 204/4/4 211/4/4
f 211/4/4 204/4/4 212/4/4
f 212/4/4 204/4/4 213/4/4
f 205/4/4 206/4/4 214/4/4
f 206/4/4 207/4/4 214/4/4
f 207/4/4 208/4/4 214/4/4
f 208/4/4 209/4/4 214/4/4
f 214/4/4 209/4/4 215/4/4
f 215/4/4 209/4/4 216/4/4
f 214/4/4 215/4/4 219/4/4
f 213/4/4 214/4/4 219/4/4
f 219/4/4 215/4/4 220/4/4
f 220/4/4 215/4/4 221/4/4
f 217/4/4 218/4/4 223/4/4
f 218/4/4 219/4/4 223/4/4
f 223/4/4 219/4/4 224/4/4
f 221/4/4 222/4/4 225/4/4
f 220/4/4 221/4/4 225/4/4
f 225/4/4 222/4/4 226/4/4
f 226/4/4 222/4/4 227/4/4
f 227/4/4 222/4/4 228/4/4
f 228/4/4 222/4/4 229/4/4
f 226/4/4 227/4/4 231/4/4
f 227/2/4 228/2/4 232/2/4
f 231/4/4 227/4/4 232/4/4
f 228/4/4 229/4/4 233/4/4
f 232/2/4 228/2/4 233/2/4
f 229/4/4 230/4/4 233/4/4
f 233/4/4 230/4/4 234/4/4
f 232/4/4 233/4/4 235/4/4
f 233/2/4 234/2/4 236/2/4
f 235/4/4 233/4/4 236/4/4
f 234/4/4 230/4/4 237/4/4
f 236/2/4 234/2/4 237/2/4
f 236/4/4 237/4/4 238/4/4
f 237/4/4 230/4/4 239/4/4
f 238/4/4 237/4/4 239/4/4
f 240/1/4 241/1/4 242/1/4
f 242/1/4 241/1/4 243/1/4
f 248/1/5 245/1/5 244/1/5
f 249/1/5 245/1/5 248/1/5
f 250/1/5 247/1/5 246/1/5
f 251/1/5 247/1/5 250/1/5
f 252/4/5 249/4/5 248/4/5
f 253/4/5 249/4/5 252/4/5
f 254/4/5 251/4/5 250/4/5
f 255/4/5 251/4/5 254/4/5
f 258/1/5 257/1/5 256/1/5
f 259/1/5 257/1/5 258/1/5
f 260/4/5 259/4/5 258/4/5
f 261/4/5 259/4/5 260/4/5
f 262/4/5 261/4/5 260/4/5
f 263/4/5 261/4/5 262/4/5
f 264/1/5 263/1/5 262/1/5
f 265/1/5 263/1/5 264/1/5
f 272/3/5 268/3/5 267/3/5
f 272/1/5 269/1/5 268/1/5
f 273/3/5 270/3/5 269/3/5
f 273/1/5 269/1/5 272/1/5
f 274/4/5 267/4/5 266/4/5
f 274/3/5 272/3/5 267/3/5
f 274/3/5 273/3/5 272/3/5
f 275/3/5 270/3/5 273/3/5
f 275/3/5 273/3/5 274/3/5
f 275/4/5 271/4/5 270/4/5
f 276/4/5 274/4/5 266/4/5
f 277/4/5 274/4/5 276/4/5
f 278/4/5 271/4/5 275/4/5
f 279/4/5 271/4/5 278/4/5
f 284/4/5 281/4/5 280/4/5
f 285/4/5 281/4/5 284/4/5
f 286/4/5 283/4/5 282/4/5
f 287/4/5 283/4/5 286/4/5
f 292/4/5 289/4/5 288/4/5
f 293/4/5 289/4/5 292/4/5
f 294/4/5 291/4/5 290/4/5
f 295/4/5 291/4/5 294/4/5
f 300/4/5 297/4/5 296/4/5
f 301/4/5 297/4/5 300/4/5
f 302/4/5 299/4/5 298/4/5
f 303/4/5 299/4/5 302/4/5
f 304/1/6 305/1/6 308/1/6
f 308/1/6 305/1/6 309/1/6
f 306/1/6 307/1/6 310/1/6
f 310/1/6 307/1/6 311/1/6
f 312/4/6 313/4/6 316/4/6
f 316/4/6 313/4/6 317/4/6
f 314/4/6 315/4/6 318/4/6
f 318/4/6 315/4/6 319/4/6
f 317/1/6 318/1/6 320/1/6
f 320/1/6 318/1/6 321/1/6
f 322/4/6 323/4/6 324/4/6
f 324/4/6 323/4/6 325/4/6
f 326/4/6 327/4/6 328/4/6
f 328/4/6 327/4/6 329/4/6
f 329/4/6 327/4/6 330/4/6
f 330/4/6 327/4/6 331/4/6
f 329/4/6 330/4/6 332/4/6
f 332/4/6 330/4/6 333/4/6
f 334/4/6 335/4/6 338/4/6
f 338/4/6 335/4/6 339/4/6
f 336/4/6 337/4/6 340/4/6
f 340/4/6 337/4/6 341/4/6
f 342/4/6 343/4/6 346/4/6
f 346/4/6 343/4/6 347/4/6
f 344/4/6 345/4/6 348/4/6
f 348/4/6 345/4/6 349/4/6
