# MagicaVoxel @ Ephtracy

# group
o 

# material
mtllib Wizard.mtl
usemtl palette

# normals
vn -1 0 0
vn 1 0 0
vn 0 0 1
vn 0 0 -1
vn 0 -1 0
vn 0 1 0

# texcoords
vt 0.0332031 0.5
vt 0.0566406 0.5
vt 0.0644531 0.5
vt 0.380859 0.5
vt 0.701172 0.5
vt 0.970703 0.5
vt 0.994141 0.5

# verts
v 1 1.9 -1.4
v 1 1.9 -1.6
v 1 2 -1.4
v 1 2 -1.6
v 1 2.1 -1.4
v 1 2.1 -1.6
v 1 2.9 -1.2
v 1 2.9 -1.9
v 1 3 -1.2
v 1 3 -1.9
v 1.1 1.6 -1.2
v 1.1 1.6 -1.8
v 1.1 1.7 -1.2
v 1.1 1.7 -1.8
v 1.1 2.1 -1.4
v 1.1 2.1 -1.6
v 1.1 2.3 -1.4
v 1.1 2.3 -1.6
v 1.1 2.4 -1.2
v 1.1 2.4 -1.3
v 1.1 2.4 -1.7
v 1.1 2.4 -1.8
v 1.1 2.5 -1.3
v 1.1 2.5 -1.7
v 1.1 2.6 -1.2
v 1.1 2.6 -1.3
v 1.1 2.9 -1.3
v 1.1 2.9 -1.8
v 1.1 3 -1.3
v 1.1 3 -1.8
v 1.1 3.1 -1.3
v 1.1 3.1 -1.8
v 1.2 1.7 -1.3
v 1.2 1.7 -1.7
v 1.2 2.1 -1.4
v 1.2 2.1 -1.6
v 1.2 2.3 -1.2
v 1.2 2.3 -1.3
v 1.2 2.3 -1.4
v 1.2 2.3 -1.6
v 1.2 2.3 -1.7
v 1.2 2.3 -1.8
v 1.2 2.4 -1.2
v 1.2 2.4 -1.3
v 1.2 2.4 -1.7
v 1.2 2.4 -1.8
v 1.2 2.4 -1.9
v 1.2 2.5 -1.3
v 1.2 2.5 -1.7
v 1.2 2.9 -1.8
v 1.2 2.9 -1.9
v 1.2 3.1 -1.4
v 1.2 3.1 -1.7
v 1.2 3.2 -1.4
v 1.2 3.2 -1.7
v 1.3 2.2 -1.2
v 1.3 2.2 -1.3
v 1.3 2.2 -1.7
v 1.3 2.2 -1.8
v 1.3 2.3 -1.2
v 1.3 2.3 -1.3
v 1.3 2.3 -1.7
v 1.3 2.3 -1.8
v 1.3 3.2 -1.5
v 1.3 3.2 -1.6
v 1.3 3.3 -1.5
v 1.3 3.3 -1.6
v 1.4 1.8 -1.7
v 1.4 1.8 -1.8
v 1.4 2 -1.7
v 1.4 2 -1.8
v 1.4 2.1 -1.2
v 1.4 2.1 -1.3
v 1.4 2.1 -1.7
v 1.4 2.1 -1.8
v 1.4 2.2 -1.2
v 1.4 2.2 -1.3
v 1.4 2.2 -1.7
v 1.4 2.2 -1.8
v 1.4 2.5 -1.2
v 1.4 2.5 -1.3
v 1.4 2.6 -1.2
v 1.4 2.6 -1.3
v 1.4 3.3 -1.5
v 1.4 3.3 -1.6
v 1.4 3.4 -1.5
v 1.4 3.4 -1.6
v 1.8 2 -1.2
v 1.8 2 -1.3
v 1.8 2.1 -1.1
v 1.8 2.1 -1.2
v 1.8 2.1 -1.3
v 1.8 2.2 -0.9
v 1.8 2.2 -1
v 1.8 2.2 -1.1
v 1.8 2.2 -1.2
v 1.8 2.3 -1
v 1.8 2.3 -1.1
v 1.8 2.4 -0.9
v 1.8 2.4 -1.1
v 1.8 2.5 -1.2
v 1.8 2.5 -1.3
v 1.8 2.6 -1.2
v 1.8 2.6 -1.3
v 1.9 2 -1.3
v 1.9 2 -1.4
v 1.9 2.1 -1.3
v 1.9 2.1 -1.4
v 1.9 2.1 -1.5
v 1.9 2.2 -1.3
v 1.9 2.2 -1.4
v 1.9 2.2 -1.5
v 1.1 1.9 -1.4
v 1.1 1.9 -1.6
v 1.1 2 -1.4
v 1.1 2 -1.6
v 1.1 2.1 -1.4
v 1.1 2.1 -1.6
v 1.2 2.5 -1.2
v 1.2 2.5 -1.3
v 1.2 2.6 -1.2
v 1.2 2.6 -1.3
v 1.6 1.8 -1.7
v 1.6 1.8 -1.8
v 1.6 2 -1.7
v 1.6 2 -1.8
v 1.6 2.1 -1.2
v 1.6 2.1 -1.3
v 1.6 2.1 -1.7
v 1.6 2.1 -1.8
v 1.6 2.2 -1.2
v 1.6 2.2 -1.3
v 1.6 2.2 -1.7
v 1.6 2.2 -1.8
v 1.6 2.5 -1.2
v 1.6 2.5 -1.3
v 1.6 2.6 -1.2
v 1.6 2.6 -1.3
v 1.6 3.3 -1.5
v 1.6 3.3 -1.6
v 1.6 3.4 -1.5
v 1.6 3.4 -1.6
v 1.7 2.2 -1.2
v 1.7 2.2 -1.3
v 1.7 2.2 -1.7
v 1.7 2.2 -1.8
v 1.7 2.3 -1.2
v 1.7 2.3 -1.3
v 1.7 2.3 -1.7
v 1.7 2.3 -1.8
v 1.7 3.2 -1.5
v 1.7 3.2 -1.6
v 1.7 3.3 -1.5
v 1.7 3.3 -1.6
v 1.8 1.7 -1.3
v 1.8 1.7 -1.7
v 1.8 2 -1.3
v 1.8 2.1 -1.3
v 1.8 2.2 -1.4
v 1.8 2.2 -1.6
v 1.8 2.3 -1.2
v 1.8 2.3 -1.3
v 1.8 2.3 -1.4
v 1.8 2.3 -1.6
v 1.8 2.3 -1.7
v 1.8 2.3 -1.8
v 1.8 2.4 -1.2
v 1.8 2.4 -1.3
v 1.8 2.4 -1.7
v 1.8 2.4 -1.8
v 1.8 2.4 -1.9
v 1.8 2.5 -1.3
v 1.8 2.5 -1.7
v 1.8 2.9 -1.8
v 1.8 2.9 -1.9
v 1.8 3.1 -1.4
v 1.8 3.1 -1.7
v 1.8 3.2 -1.4
v 1.8 3.2 -1.7
v 1.9 1.6 -1.2
v 1.9 1.6 -1.8
v 1.9 1.7 -1.2
v 1.9 1.7 -1.8
v 1.9 2.1 -1.1
v 1.9 2.1 -1.2
v 1.9 2.2 -0.9
v 1.9 2.2 -1
v 1.9 2.2 -1.1
v 1.9 2.2 -1.2
v 1.9 2.2 -1.4
v 1.9 2.2 -1.5
v 1.9 2.2 -1.6
v 1.9 2.3 -1
v 1.9 2.3 -1.1
v 1.9 2.3 -1.4
v 1.9 2.3 -1.6
v 1.9 2.4 -0.9
v 1.9 2.4 -1.1
v 1.9 2.4 -1.2
v 1.9 2.4 -1.3
v 1.9 2.4 -1.7
v 1.9 2.4 -1.8
v 1.9 2.5 -1.3
v 1.9 2.5 -1.7
v 1.9 2.6 -1.2
v 1.9 2.6 -1.3
v 1.9 2.9 -1.3
v 1.9 2.9 -1.8
v 1.9 3 -1.3
v 1.9 3 -1.8
v 1.9 3.1 -1.3
v 1.9 3.1 -1.8
v 2 2 -1.2
v 2 2 -1.4
v 2 2.1 -1.2
v 2 2.1 -1.3
v 2 2.1 -1.4
v 2 2.1 -1.5
v 2 2.2 -1.3
v 2 2.2 -1.5
v 2 2.9 -1.2
v 2 2.9 -1.9
v 2 3 -1.2
v 2 3 -1.9
v 1.8 2.2 -0.9
v 1.8 2.4 -0.9
v 1.9 2.2 -0.9
v 1.9 2.4 -0.9
v 1.8 2.1 -1.1
v 1.8 2.2 -1.1
v 1.9 2.1 -1.1
v 1.9 2.2 -1.1
v 1 2.9 -1.2
v 1 3 -1.2
v 1.1 1.6 -1.2
v 1.1 1.7 -1.2
v 1.1 2.4 -1.2
v 1.1 2.6 -1.2
v 1.2 2.3 -1.2
v 1.2 2.4 -1.2
v 1.2 2.5 -1.2
v 1.2 2.6 -1.2
v 1.3 2.2 -1.2
v 1.3 2.3 -1.2
v 1.4 2.1 -1.2
v 1.4 2.2 -1.2
v 1.4 2.4 -1.2
v 1.4 2.5 -1.2
v 1.4 2.6 -1.2
v 1.6 2.1 -1.2
v 1.6 2.2 -1.2
v 1.6 2.4 -1.2
v 1.6 2.5 -1.2
v 1.6 2.6 -1.2
v 1.7 2.2 -1.2
v 1.7 2.3 -1.2
v 1.8 2 -1.2
v 1.8 2.1 -1.2
v 1.8 2.3 -1.2
v 1.8 2.4 -1.2
v 1.8 2.5 -1.2
v 1.8 2.6 -1.2
v 1.9 1.6 -1.2
v 1.9 1.7 -1.2
v 1.9 2 -1.2
v 1.9 2.1 -1.2
v 1.9 2.4 -1.2
v 1.9 2.6 -1.2
v 2 2 -1.2
v 2 2.1 -1.2
v 2 2.9 -1.2
v 2 3 -1.2
v 1.1 2.6 -1.3
v 1.1 2.9 -1.3
v 1.1 3 -1.3
v 1.1 3.1 -1.3
v 1.2 1.7 -1.3
v 1.2 2.3 -1.3
v 1.2 2.5 -1.3
v 1.2 2.6 -1.3
v 1.2 2.8 -1.3
v 1.3 2.2 -1.3
v 1.3 2.3 -1.3
v 1.3 2.6 -1.3
v 1.3 2.7 -1.3
v 1.4 2.1 -1.3
v 1.4 2.2 -1.3
v 1.4 2.5 -1.3
v 1.4 2.6 -1.3
v 1.4 2.7 -1.3
v 1.6 2.1 -1.3
v 1.6 2.2 -1.3
v 1.6 2.5 -1.3
v 1.6 2.6 -1.3
v 1.6 2.7 -1.3
v 1.7 2.2 -1.3
v 1.7 2.3 -1.3
v 1.7 2.6 -1.3
v 1.7 2.7 -1.3
v 1.8 1.7 -1.3
v 1.8 2 -1.3
v 1.8 2.1 -1.3
v 1.8 2.3 -1.3
v 1.8 2.5 -1.3
v 1.8 2.6 -1.3
v 1.8 2.8 -1.3
v 1.9 2.1 -1.3
v 1.9 2.2 -1.3
v 1.9 2.6 -1.3
v 1.9 2.9 -1.3
v 1.9 3 -1.3
v 1.9 3.1 -1.3
v 2 2.1 -1.3
v 2 2.2 -1.3
v 1 1.9 -1.4
v 1 2 -1.4
v 1 2.1 -1.4
v 1.1 1.9 -1.4
v 1.1 2 -1.4
v 1.1 2.1 -1.4
v 1.1 2.3 -1.4
v 1.2 2.1 -1.4
v 1.2 2.3 -1.4
v 1.2 3.1 -1.4
v 1.2 3.2 -1.4
v 1.8 2.2 -1.4
v 1.8 2.3 -1.4
v 1.8 3.1 -1.4
v 1.8 3.2 -1.4
v 1.9 2.2 -1.4
v 1.9 2.3 -1.4
v 1.3 3.2 -1.5
v 1.3 3.3 -1.5
v 1.4 3.3 -1.5
v 1.4 3.4 -1.5
v 1.6 3.3 -1.5
v 1.6 3.4 -1.5
v 1.7 3.2 -1.5
v 1.7 3.3 -1.5
v 1.1 2.4 -1.7
v 1.1 2.5 -1.7
v 1.2 2.4 -1.7
v 1.2 2.5 -1.7
v 1.8 2.4 -1.7
v 1.8 2.5 -1.7
v 1.9 2.4 -1.7
v 1.9 2.5 -1.7
v 1.8 2.2 -1.1
v 1.8 2.3 -1.1
v 1.8 2.4 -1.1
v 1.9 2.2 -1.1
v 1.9 2.3 -1.1
v 1.9 2.4 -1.1
v 1.8 2.1 -1.2
v 1.8 2.2 -1.2
v 1.9 2.1 -1.2
v 1.9 2.2 -1.2
v 1.1 2.4 -1.3
v 1.1 2.5 -1.3
v 1.2 2.4 -1.3
v 1.2 2.5 -1.3
v 1.8 2 -1.3
v 1.8 2.1 -1.3
v 1.8 2.4 -1.3
v 1.8 2.5 -1.3
v 1.9 2 -1.3
v 1.9 2.1 -1.3
v 1.9 2.4 -1.3
v 1.9 2.5 -1.3
v 1.9 2 -1.4
v 1.9 2.1 -1.4
v 2 2 -1.4
v 2 2.1 -1.4
v 1.9 2.1 -1.5
v 1.9 2.2 -1.5
v 2 2.1 -1.5
v 2 2.2 -1.5
v 1 1.9 -1.6
v 1 2 -1.6
v 1 2.1 -1.6
v 1.1 1.9 -1.6
v 1.1 2 -1.6
v 1.1 2.1 -1.6
v 1.1 2.3 -1.6
v 1.2 2.1 -1.6
v 1.2 2.3 -1.6
v 1.3 3.2 -1.6
v 1.3 3.3 -1.6
v 1.4 3.3 -1.6
v 1.4 3.4 -1.6
v 1.6 3.3 -1.6
v 1.6 3.4 -1.6
v 1.7 3.2 -1.6
v 1.7 3.3 -1.6
v 1.8 2.2 -1.6
v 1.8 2.3 -1.6
v 1.9 2.2 -1.6
v 1.9 2.3 -1.6
v 1.2 1.7 -1.7
v 1.2 2.3 -1.7
v 1.2 3.1 -1.7
v 1.2 3.2 -1.7
v 1.3 2.2 -1.7
v 1.3 2.3 -1.7
v 1.4 1.8 -1.7
v 1.4 2 -1.7
v 1.4 2.1 -1.7
v 1.4 2.2 -1.7
v 1.6 1.8 -1.7
v 1.6 2 -1.7
v 1.6 2.1 -1.7
v 1.6 2.2 -1.7
v 1.7 2.2 -1.7
v 1.7 2.3 -1.7
v 1.8 1.7 -1.7
v 1.8 2.3 -1.7
v 1.8 3.1 -1.7
v 1.8 3.2 -1.7
v 1.1 1.6 -1.8
v 1.1 1.7 -1.8
v 1.1 2.4 -1.8
v 1.1 2.9 -1.8
v 1.1 3 -1.8
v 1.1 3.1 -1.8
v 1.2 2.3 -1.8
v 1.2 2.4 -1.8
v 1.2 2.9 -1.8
v 1.3 2.2 -1.8
v 1.3 2.3 -1.8
v 1.4 1.8 -1.8
v 1.4 2 -1.8
v 1.4 2.1 -1.8
v 1.4 2.2 -1.8
v 1.6 1.8 -1.8
v 1.6 2 -1.8
v 1.6 2.1 -1.8
v 1.6 2.2 -1.8
v 1.7 2.2 -1.8
v 1.7 2.3 -1.8
v 1.8 2.3 -1.8
v 1.8 2.4 -1.8
v 1.8 2.9 -1.8
v 1.9 1.6 -1.8
v 1.9 1.7 -1.8
v 1.9 2.4 -1.8
v 1.9 2.9 -1.8
v 1.9 3 -1.8
v 1.9 3.1 -1.8
v 1 2.9 -1.9
v 1 3 -1.9
v 1.2 2.4 -1.9
v 1.2 2.9 -1.9
v 1.8 2.4 -1.9
v 1.8 2.9 -1.9
v 2 2.9 -1.9
v 2 3 -1.9
v 1.1 1.6 -1.2
v 1.9 1.6 -1.2
v 1.1 1.6 -1.8
v 1.9 1.6 -1.8
v 1.4 1.8 -1.7
v 1.6 1.8 -1.7
v 1.4 1.8 -1.8
v 1.6 1.8 -1.8
v 1 1.9 -1.4
v 1.1 1.9 -1.4
v 1 1.9 -1.6
v 1.1 1.9 -1.6
v 1.8 2 -1.2
v 1.9 2 -1.2
v 2 2 -1.2
v 1.8 2 -1.3
v 1.9 2 -1.3
v 1.9 2 -1.4
v 2 2 -1.4
v 1.8 2.1 -1.1
v 1.9 2.1 -1.1
v 1.4 2.1 -1.2
v 1.6 2.1 -1.2
v 1.8 2.1 -1.2
v 1.9 2.1 -1.2
v 1.4 2.1 -1.3
v 1.6 2.1 -1.3
v 1.1 2.1 -1.4
v 1.2 2.1 -1.4
v 1.9 2.1 -1.4
v 2 2.1 -1.4
v 1.9 2.1 -1.5
v 2 2.1 -1.5
v 1.1 2.1 -1.6
v 1.2 2.1 -1.6
v 1.8 2.2 -0.9
v 1.9 2.2 -0.9
v 1.8 2.2 -1
v 1.9 2.2 -1
v 1.8 2.2 -1.1
v 1.9 2.2 -1.1
v 1.3 2.2 -1.2
v 1.4 2.2 -1.2
v 1.6 2.2 -1.2
v 1.7 2.2 -1.2
v 1.3 2.2 -1.3
v 1.4 2.2 -1.3
v 1.6 2.2 -1.3
v 1.7 2.2 -1.3
v 1.8 2.2 -1.4
v 1.9 2.2 -1.4
v 1.9 2.2 -1.5
v 1.8 2.2 -1.6
v 1.9 2.2 -1.6
v 1.3 2.2 -1.7
v 1.4 2.2 -1.7
v 1.6 2.2 -1.7
v 1.7 2.2 -1.7
v 1.3 2.2 -1.8
v 1.4 2.2 -1.8
v 1.6 2.2 -1.8
v 1.7 2.2 -1.8
v 1.2 2.3 -1.2
v 1.3 2.3 -1.2
v 1.7 2.3 -1.2
v 1.8 2.3 -1.2
v 1.2 2.3 -1.3
v 1.3 2.3 -1.3
v 1.7 2.3 -1.3
v 1.8 2.3 -1.3
v 1.2 2.3 -1.7
v 1.3 2.3 -1.7
v 1.7 2.3 -1.7
v 1.8 2.3 -1.7
v 1.2 2.3 -1.8
v 1.3 2.3 -1.8
v 1.7 2.3 -1.8
v 1.8 2.3 -1.8
v 1.1 2.4 -1.2
v 1.2 2.4 -1.2
v 1.8 2.4 -1.2
v 1.9 2.4 -1.2
v 1.1 2.4 -1.3
v 1.2 2.4 -1.3
v 1.8 2.4 -1.3
v 1.9 2.4 -1.3
v 1.1 2.4 -1.7
v 1.2 2.4 -1.7
v 1.8 2.4 -1.7
v 1.9 2.4 -1.7
v 1.1 2.4 -1.8
v 1.2 2.4 -1.8
v 1.8 2.4 -1.8
v 1.9 2.4 -1.8
v 1.2 2.4 -1.9
v 1.8 2.4 -1.9
v 1.1 2.5 -1.3
v 1.2 2.5 -1.3
v 1.8 2.5 -1.3
v 1.9 2.5 -1.3
v 1.1 2.5 -1.7
v 1.2 2.5 -1.7
v 1.8 2.5 -1.7
v 1.9 2.5 -1.7
v 1 2.9 -1.2
v 2 2.9 -1.2
v 1.1 2.9 -1.3
v 1.9 2.9 -1.3
v 1.1 2.9 -1.8
v 1.2 2.9 -1.8
v 1.8 2.9 -1.8
v 1.9 2.9 -1.8
v 1 2.9 -1.9
v 1.2 2.9 -1.9
v 1.8 2.9 -1.9
v 2 2.9 -1.9
v 1.1 1.7 -1.2
v 1.9 1.7 -1.2
v 1.2 1.7 -1.3
v 1.8 1.7 -1.3
v 1.2 1.7 -1.7
v 1.8 1.7 -1.7
v 1.1 1.7 -1.8
v 1.9 1.7 -1.8
v 1.8 2.1 -1.2
v 1.9 2.1 -1.2
v 2 2.1 -1.2
v 1.8 2.1 -1.3
v 1.9 2.1 -1.3
v 2 2.1 -1.3
v 1 2.1 -1.4
v 1.1 2.1 -1.4
v 1 2.1 -1.6
v 1.1 2.1 -1.6
v 1.8 2.2 -1.1
v 1.9 2.2 -1.1
v 1.8 2.2 -1.2
v 1.9 2.2 -1.2
v 1.9 2.2 -1.3
v 2 2.2 -1.3
v 1.9 2.2 -1.4
v 1.9 2.2 -1.5
v 2 2.2 -1.5
v 1.1 2.3 -1.4
v 1.2 2.3 -1.4
v 1.8 2.3 -1.4
v 1.9 2.3 -1.4
v 1.1 2.3 -1.6
v 1.2 2.3 -1.6
v 1.8 2.3 -1.6
v 1.9 2.3 -1.6
v 1.8 2.4 -0.9
v 1.9 2.4 -0.9
v 1.8 2.4 -1.1
v 1.9 2.4 -1.1
v 1.2 2.5 -1.2
v 1.4 2.5 -1.2
v 1.6 2.5 -1.2
v 1.8 2.5 -1.2
v 1.2 2.5 -1.3
v 1.4 2.5 -1.3
v 1.6 2.5 -1.3
v 1.8 2.5 -1.3
v 1.1 2.6 -1.2
v 1.2 2.6 -1.2
v 1.4 2.6 -1.2
v 1.6 2.6 -1.2
v 1.8 2.6 -1.2
v 1.9 2.6 -1.2
v 1.1 2.6 -1.3
v 1.2 2.6 -1.3
v 1.4 2.6 -1.3
v 1.6 2.6 -1.3
v 1.8 2.6 -1.3
v 1.9 2.6 -1.3
v 1 3 -1.2
v 2 3 -1.2
v 1.1 3 -1.3
v 1.9 3 -1.3
v 1.1 3 -1.8
v 1.9 3 -1.8
v 1 3 -1.9
v 2 3 -1.9
v 1.1 3.1 -1.3
v 1.9 3.1 -1.3
v 1.2 3.1 -1.4
v 1.8 3.1 -1.4
v 1.2 3.1 -1.7
v 1.8 3.1 -1.7
v 1.1 3.1 -1.8
v 1.9 3.1 -1.8
v 1.2 3.2 -1.4
v 1.8 3.2 -1.4
v 1.3 3.2 -1.5
v 1.7 3.2 -1.5
v 1.3 3.2 -1.6
v 1.7 3.2 -1.6
v 1.2 3.2 -1.7
v 1.8 3.2 -1.7
v 1.3 3.3 -1.5
v 1.4 3.3 -1.5
v 1.6 3.3 -1.5
v 1.7 3.3 -1.5
v 1.3 3.3 -1.6
v 1.4 3.3 -1.6
v 1.6 3.3 -1.6
v 1.7 3.3 -1.6
v 1.4 3.4 -1.5
v 1.6 3.4 -1.5
v 1.4 3.4 -1.6
v 1.6 3.4 -1.6

# faces
f 3/1/1 2/1/1 1/1/1
f 4/1/1 2/1/1 3/1/1
f 5/4/1 4/4/1 3/4/1
f 6/4/1 4/4/1 5/4/1
f 9/4/1 8/4/1 7/4/1
f 10/4/1 8/4/1 9/4/1
f 13/4/1 12/4/1 11/4/1
f 14/4/1 12/4/1 13/4/1
f 17/4/1 16/4/1 15/4/1
f 18/4/1 16/4/1 17/4/1
f 23/6/1 20/6/1 19/6/1
f 24/6/1 22/6/1 21/6/1
f 25/6/1 23/6/1 19/6/1
f 25/6/1 24/6/1 23/6/1
f 26/6/1 24/6/1 25/6/1
f 27/6/1 24/6/1 26/6/1
f 28/6/1 22/6/1 24/6/1
f 28/6/1 24/6/1 27/6/1
f 31/4/1 30/4/1 29/4/1
f 32/4/1 30/4/1 31/4/1
f 35/4/1 34/4/1 33/4/1
f 36/4/1 34/4/1 35/4/1
f 38/4/1 35/4/1 33/4/1
f 39/4/1 35/4/1 38/4/1
f 40/4/1 34/4/1 36/4/1
f 41/4/1 34/4/1 40/4/1
f 43/6/1 38/6/1 37/6/1
f 44/4/1 39/4/1 38/4/1
f 44/6/1 38/6/1 43/6/1
f 44/4/1 40/4/1 39/4/1
f 44/4/1 41/4/1 40/4/1
f 45/6/1 42/6/1 41/6/1
f 45/4/1 41/4/1 44/4/1
f 46/6/1 42/6/1 45/6/1
f 48/4/1 45/4/1 44/4/1
f 49/4/1 45/4/1 48/4/1
f 50/6/1 47/6/1 46/6/1
f 51/6/1 47/6/1 50/6/1
f 54/4/1 53/4/1 52/4/1
f 55/4/1 53/4/1 54/4/1
f 60/6/1 57/6/1 56/6/1
f 61/6/1 57/6/1 60/6/1
f 62/6/1 59/6/1 58/6/1
f 63/6/1 59/6/1 62/6/1
f 66/4/1 65/4/1 64/4/1
f 67/4/1 65/4/1 66/4/1
f 70/6/1 69/6/1 68/6/1
f 71/6/1 69/6/1 70/6/1
f 74/7/1 71/7/1 70/7/1
f 75/7/1 71/7/1 74/7/1
f 76/6/1 73/6/1 72/6/1
f 77/6/1 73/6/1 76/6/1
f 78/6/1 75/6/1 74/6/1
f 79/6/1 75/6/1 78/6/1
f 82/1/1 81/1/1 80/1/1
f 83/1/1 81/1/1 82/1/1
f 86/4/1 85/4/1 84/4/1
f 87/4/1 85/4/1 86/4/1
f 91/5/1 89/5/1 88/5/1
f 92/5/1 89/5/1 91/5/1
f 95/5/1 91/5/1 90/5/1
f 96/5/1 91/5/1 95/5/1
f 97/3/1 94/3/1 93/3/1
f 97/5/1 95/5/1 94/5/1
f 98/5/1 95/5/1 97/5/1
f 99/3/1 97/3/1 93/3/1
f 99/3/1 98/3/1 97/3/1
f 100/3/1 98/3/1 99/3/1
f 103/6/1 102/6/1 101/6/1
f 104/6/1 102/6/1 103/6/1
f 107/1/1 106/1/1 105/1/1
f 108/1/1 106/1/1 107/1/1
f 110/4/1 108/4/1 107/4/1
f 110/4/1 109/4/1 108/4/1
f 111/4/1 109/4/1 110/4/1
f 112/4/1 109/4/1 111/4/1
f 113/1/2 114/1/2 115/1/2
f 115/1/2 114/1/2 116/1/2
f 115/4/2 116/4/2 117/4/2
f 117/4/2 116/4/2 118/4/2
f 119/6/2 120/6/2 121/6/2
f 121/6/2 120/6/2 122/6/2
f 123/6/2 124/6/2 125/6/2
f 125/6/2 124/6/2 126/6/2
f 125/7/2 126/7/2 129/7/2
f 129/7/2 126/7/2 130/7/2
f 127/6/2 128/6/2 131/6/2
f 131/6/2 128/6/2 132/6/2
f 129/6/2 130/6/2 133/6/2
f 133/6/2 130/6/2 134/6/2
f 135/1/2 136/1/2 137/1/2
f 137/1/2 136/1/2 138/1/2
f 139/4/2 140/4/2 141/4/2
f 141/4/2 140/4/2 142/4/2
f 143/6/2 144/6/2 147/6/2
f 147/6/2 144/6/2 148/6/2
f 145/6/2 146/6/2 149/6/2
f 149/6/2 146/6/2 150/6/2
f 151/4/2 152/4/2 153/4/2
f 153/4/2 152/4/2 154/4/2
f 155/4/2 156/4/2 157/4/2
f 157/4/2 156/4/2 158/4/2
f 158/4/2 156/4/2 159/4/2
f 159/4/2 156/4/2 160/4/2
f 158/4/2 159/4/2 162/4/2
f 162/4/2 159/4/2 163/4/2
f 160/4/2 156/4/2 164/4/2
f 164/4/2 156/4/2 165/4/2
f 161/6/2 162/6/2 167/6/2
f 162/4/2 163/4/2 168/4/2
f 167/6/2 162/6/2 168/6/2
f 163/4/2 164/4/2 168/4/2
f 164/4/2 165/4/2 168/4/2
f 165/6/2 166/6/2 169/6/2
f 168/4/2 165/4/2 169/4/2
f 169/6/2 166/6/2 170/6/2
f 168/4/2 169/4/2 172/4/2
f 172/4/2 169/4/2 173/4/2
f 170/6/2 171/6/2 174/6/2
f 174/6/2 171/6/2 175/6/2
f 176/4/2 177/4/2 178/4/2
f 178/4/2 177/4/2 179/4/2
f 180/4/2 181/4/2 182/4/2
f 182/4/2 181/4/2 183/4/2
f 184/5/2 185/5/2 188/5/2
f 188/5/2 185/5/2 189/5/2
f 186/3/2 187/3/2 193/3/2
f 187/5/2 188/5/2 193/5/2
f 193/5/2 188/5/2 194/5/2
f 191/4/2 192/4/2 195/4/2
f 190/4/2 191/4/2 195/4/2
f 195/4/2 192/4/2 196/4/2
f 193/3/2 194/3/2 197/3/2
f 186/3/2 193/3/2 197/3/2
f 197/3/2 194/3/2 198/3/2
f 199/6/2 200/6/2 203/6/2
f 201/6/2 202/6/2 204/6/2
f 199/6/2 203/6/2 205/6/2
f 203/6/2 204/6/2 205/6/2
f 205/6/2 204/6/2 206/6/2
f 206/6/2 204/6/2 207/6/2
f 204/6/2 202/6/2 208/6/2
f 207/6/2 204/6/2 208/6/2
f 209/4/2 210/4/2 211/4/2
f 211/4/2 210/4/2 212/4/2
f 213/1/2 214/1/2 215/1/2
f 215/1/2 214/1/2 216/1/2
f 216/1/2 214/1/2 217/1/2
f 217/4/2 218/4/2 219/4/2
f 216/4/2 217/4/2 219/4/2
f 219/4/2 218/4/2 220/4/2
f 221/4/2 222/4/2 223/4/2
f 223/4/2 222/4/2 224/4/2
f 227/3/3 226/3/3 225/3/3
f 228/3/3 226/3/3 227/3/3
f 231/5/3 230/5/3 229/5/3
f 232/5/3 230/5/3 231/5/3
f 240/6/3 238/6/3 237/6/3
f 241/6/3 238/6/3 240/6/3
f 242/6/3 238/6/3 241/6/3
f 244/6/3 240/6/3 239/6/3
f 244/6/3 241/6/3 240/6/3
f 246/6/3 244/6/3 243/6/3
f 247/6/3 241/6/3 244/6/3
f 247/6/3 244/6/3 246/6/3
f 248/6/3 241/6/3 247/6/3
f 250/6/3 246/6/3 245/6/3
f 250/6/3 247/6/3 246/6/3
f 251/6/3 247/6/3 250/6/3
f 252/2/3 248/2/3 247/2/3
f 252/6/3 247/6/3 251/6/3
f 253/1/3 249/1/3 248/1/3
f 253/2/3 248/2/3 252/2/3
f 254/1/3 249/1/3 253/1/3
f 255/6/3 252/6/3 251/6/3
f 255/6/3 253/6/3 252/6/3
f 256/6/3 253/6/3 255/6/3
f 259/6/3 253/6/3 256/6/3
f 260/6/3 253/6/3 259/6/3
f 261/6/3 253/6/3 260/6/3
f 263/4/3 236/4/3 235/4/3
f 264/4/3 236/4/3 263/4/3
f 265/5/3 258/5/3 257/5/3
f 266/5/3 258/5/3 265/5/3
f 267/6/3 262/6/3 261/6/3
f 267/6/3 261/6/3 260/6/3
f 268/6/3 262/6/3 267/6/3
f 269/1/3 266/1/3 265/1/3
f 270/1/3 266/1/3 269/1/3
f 271/4/3 234/4/3 233/4/3
f 272/4/3 234/4/3 271/4/3
f 280/6/3 274/6/3 273/6/3
f 281/6/3 274/6/3 280/6/3
f 282/4/3 278/4/3 277/4/3
f 283/4/3 278/4/3 282/4/3
f 284/1/3 280/1/3 279/1/3
f 284/1/3 281/1/3 280/1/3
f 285/1/3 281/1/3 284/1/3
f 286/4/3 282/4/3 277/4/3
f 287/4/3 282/4/3 286/4/3
f 288/1/3 284/1/3 279/1/3
f 289/7/3 285/7/3 284/7/3
f 289/1/3 284/1/3 288/1/3
f 290/1/3 281/1/3 285/1/3
f 290/7/3 285/7/3 289/7/3
f 291/4/3 286/4/3 277/4/3
f 294/1/3 290/1/3 289/1/3
f 295/1/3 281/1/3 290/1/3
f 295/1/3 290/1/3 294/1/3
f 296/4/3 292/4/3 291/4/3
f 298/1/3 294/1/3 293/1/3
f 298/7/3 295/7/3 294/7/3
f 299/1/3 281/1/3 295/1/3
f 299/7/3 295/7/3 298/7/3
f 300/4/3 297/4/3 296/4/3
f 300/4/3 291/4/3 277/4/3
f 300/4/3 296/4/3 291/4/3
f 301/4/3 297/4/3 300/4/3
f 302/4/3 297/4/3 301/4/3
f 303/4/3 297/4/3 302/4/3
f 304/1/3 298/1/3 293/1/3
f 304/1/3 299/1/3 298/1/3
f 305/1/3 299/1/3 304/1/3
f 306/6/3 274/6/3 281/6/3
f 306/1/3 299/1/3 305/1/3
f 306/1/3 281/1/3 299/1/3
f 309/6/3 306/6/3 305/6/3
f 310/6/3 274/6/3 306/6/3
f 310/6/3 306/6/3 309/6/3
f 311/4/3 276/4/3 275/4/3
f 312/4/3 276/4/3 311/4/3
f 313/4/3 308/4/3 307/4/3
f 314/4/3 308/4/3 313/4/3
f 318/1/3 316/1/3 315/1/3
f 319/4/3 317/4/3 316/4/3
f 319/1/3 316/1/3 318/1/3
f 320/4/3 317/4/3 319/4/3
f 322/4/3 321/4/3 320/4/3
f 323/4/3 321/4/3 322/4/3
f 328/4/3 325/4/3 324/4/3
f 329/4/3 325/4/3 328/4/3
f 330/4/3 327/4/3 326/4/3
f 331/4/3 327/4/3 330/4/3
f 334/4/3 333/4/3 332/4/3
f 336/4/3 334/4/3 332/4/3
f 336/4/3 335/4/3 334/4/3
f 337/4/3 335/4/3 336/4/3
f 338/4/3 336/4/3 332/4/3
f 339/4/3 336/4/3 338/4/3
f 342/6/3 341/6/3 340/6/3
f 343/6/3 341/6/3 342/6/3
f 346/6/3 345/6/3 344/6/3
f 347/6/3 345/6/3 346/6/3
f 348/5/4 349/5/4 351/5/4
f 349/3/4 350/3/4 352/3/4
f 351/5/4 349/5/4 352/5/4
f 352/3/4 350/3/4 353/3/4
f 354/5/4 355/5/4 356/5/4
f 356/5/4 355/5/4 357/5/4
f 358/6/4 359/6/4 360/6/4
f 360/6/4 359/6/4 361/6/4
f 362/5/4 363/5/4 366/5/4
f 366/5/4 363/5/4 367/5/4
f 364/6/4 365/6/4 368/6/4
f 368/6/4 365/6/4 369/6/4
f 370/1/4 371/1/4 372/1/4
f 372/1/4 371/1/4 373/1/4
f 374/4/4 375/4/4 376/4/4
f 376/4/4 375/4/4 377/4/4
f 378/1/4 379/1/4 381/1/4
f 379/4/4 380/4/4 382/4/4
f 381/1/4 379/1/4 382/1/4
f 382/4/4 380/4/4 383/4/4
f 383/4/4 384/4/4 385/4/4
f 385/4/4 384/4/4 386/4/4
f 387/4/4 388/4/4 389/4/4
f 387/4/4 389/4/4 391/4/4
f 389/4/4 390/4/4 391/4/4
f 391/4/4 390/4/4 392/4/4
f 387/4/4 391/4/4 393/4/4
f 393/4/4 391/4/4 394/4/4
f 395/4/4 396/4/4 397/4/4
f 397/4/4 396/4/4 398/4/4
f 399/4/4 400/4/4 403/4/4
f 403/4/4 400/4/4 404/4/4
f 399/4/4 403/4/4 405/4/4
f 405/4/4 403/4/4 406/4/4
f 406/4/4 403/4/4 407/4/4
f 407/4/4 403/4/4 408/4/4
f 399/4/4 405/4/4 409/4/4
f 409/4/4 410/4/4 413/4/4
f 411/4/4 412/4/4 413/4/4
f 410/4/4 411/4/4 413/4/4
f 409/4/4 413/4/4 415/4/4
f 413/4/4 414/4/4 415/4/4
f 399/4/4 409/4/4 415/4/4
f 415/4/4 414/4/4 416/4/4
f 401/4/4 402/4/4 417/4/4
f 417/4/4 402/4/4 418/4/4
f 421/6/4 422/6/4 426/6/4
f 426/6/4 422/6/4 427/6/4
f 425/6/4 426/6/4 429/6/4
f 428/6/4 429/6/4 433/6/4
f 430/6/4 431/6/4 434/6/4
f 431/7/4 432/7/4 435/7/4
f 434/6/4 431/6/4 435/6/4
f 432/6/4 433/6/4 436/6/4
f 435/7/4 432/7/4 436/7/4
f 433/6/4 429/6/4 437/6/4
f 436/6/4 433/6/4 437/6/4
f 437/6/4 429/6/4 438/6/4
f 429/6/4 426/6/4 439/6/4
f 438/6/4 429/6/4 439/6/4
f 439/6/4 426/6/4 440/6/4
f 440/6/4 426/6/4 441/6/4
f 419/4/4 420/4/4 443/4/4
f 443/4/4 420/4/4 444/4/4
f 441/6/4 442/6/4 445/6/4
f 445/6/4 442/6/4 446/6/4
f 423/4/4 424/4/4 447/4/4
f 447/4/4 424/4/4 448/4/4
f 449/4/4 450/4/4 452/4/4
f 451/6/4 452/6/4 453/6/4
f 452/4/4 450/4/4 454/4/4
f 453/6/4 452/6/4 454/6/4
f 454/4/4 450/4/4 455/4/4
f 455/4/4 450/4/4 456/4/4
f 459/4/5 458/4/5 457/4/5
f 460/4/5 458/4/5 459/4/5
f 463/6/5 462/6/5 461/6/5
f 464/6/5 462/6/5 463/6/5
f 467/1/5 466/1/5 465/1/5
f 468/1/5 466/1/5 467/1/5
f 472/5/5 470/5/5 469/5/5
f 473/1/5 471/1/5 470/1/5
f 473/5/5 470/5/5 472/5/5
f 474/1/5 471/1/5 473/1/5
f 475/1/5 471/1/5 474/1/5
f 480/5/5 477/5/5 476/5/5
f 481/5/5 477/5/5 480/5/5
f 482/6/5 479/6/5 478/6/5
f 483/6/5 479/6/5 482/6/5
f 488/4/5 487/4/5 486/4/5
f 489/4/5 487/4/5 488/4/5
f 490/4/5 485/4/5 484/4/5
f 491/4/5 485/4/5 490/4/5
f 494/3/5 493/3/5 492/3/5
f 495/3/5 493/3/5 494/3/5
f 496/5/5 495/5/5 494/5/5
f 497/5/5 495/5/5 496/5/5
f 502/6/5 499/6/5 498/6/5
f 503/6/5 499/6/5 502/6/5
f 504/6/5 501/6/5 500/6/5
f 505/6/5 501/6/5 504/6/5
f 508/4/5 507/4/5 506/4/5
f 509/4/5 508/4/5 506/4/5
f 510/4/5 508/4/5 509/4/5
f 515/6/5 512/6/5 511/6/5
f 516/6/5 512/6/5 515/6/5
f 517/6/5 514/6/5 513/6/5
f 518/6/5 514/6/5 517/6/5
f 523/6/5 520/6/5 519/6/5
f 524/6/5 520/6/5 523/6/5
f 525/6/5 522/6/5 521/6/5
f 526/6/5 522/6/5 525/6/5
f 531/6/5 528/6/5 527/6/5
f 532/6/5 528/6/5 531/6/5
f 533/6/5 530/6/5 529/6/5
f 534/6/5 530/6/5 533/6/5
f 539/6/5 536/6/5 535/6/5
f 540/6/5 536/6/5 539/6/5
f 541/6/5 538/6/5 537/6/5
f 542/6/5 538/6/5 541/6/5
f 547/6/5 544/6/5 543/6/5
f 548/6/5 544/6/5 547/6/5
f 549/6/5 546/6/5 545/6/5
f 550/6/5 546/6/5 549/6/5
f 551/6/5 549/6/5 548/6/5
f 552/6/5 549/6/5 551/6/5
f 557/6/5 554/6/5 553/6/5
f 558/6/5 554/6/5 557/6/5
f 559/6/5 556/6/5 555/6/5
f 560/6/5 556/6/5 559/6/5
f 563/4/5 562/4/5 561/4/5
f 564/4/5 562/4/5 563/4/5
f 565/4/5 563/4/5 561/4/5
f 568/4/5 562/4/5 564/4/5
f 569/4/5 566/4/5 565/4/5
f 569/4/5 565/4/5 561/4/5
f 570/4/5 566/4/5 569/4/5
f 571/4/5 568/4/5 567/4/5
f 572/4/5 562/4/5 568/4/5
f 572/4/5 568/4/5 571/4/5
f 573/4/6 574/4/6 575/4/6
f 575/4/6 574/4/6 576/4/6
f 573/4/6 575/4/6 577/4/6
f 576/4/6 574/4/6 578/4/6
f 573/4/6 577/4/6 579/4/6
f 577/4/6 578/4/6 579/4/6
f 578/4/6 574/4/6 580/4/6
f 579/4/6 578/4/6 580/4/6
f 581/5/6 582/5/6 584/5/6
f 582/1/6 583/1/6 585/1/6
f 584/5/6 582/5/6 585/5/6
f 585/1/6 583/1/6 586/1/6
f 587/4/6 588/4/6 589/4/6
f 589/4/6 588/4/6 590/4/6
f 591/5/6 592/5/6 593/5/6
f 593/5/6 592/5/6 594/5/6
f 595/4/6 596/4/6 597/4/6
f 597/4/6 596/4/6 598/4/6
f 598/4/6 596/4/6 599/4/6
f 600/4/6 601/4/6 604/4/6
f 604/4/6 601/4/6 605/4/6
f 602/4/6 603/4/6 606/4/6
f 606/4/6 603/4/6 607/4/6
f 608/3/6 609/3/6 610/3/6
f 610/3/6 609/3/6 611/3/6
f 612/6/6 613/6/6 616/6/6
f 616/6/6 613/6/6 617/6/6
f 614/6/6 615/6/6 618/6/6
f 618/6/6 615/6/6 619/6/6
f 620/6/6 621/6/6 626/6/6
f 626/6/6 621/6/6 627/6/6
f 622/1/6 623/1/6 628/1/6
f 628/1/6 623/1/6 629/1/6
f 624/6/6 625/6/6 630/6/6
f 630/6/6 625/6/6 631/6/6
f 632/4/6 633/4/6 634/4/6
f 634/4/6 633/4/6 635/4/6
f 632/4/6 634/4/6 636/4/6
f 635/4/6 633/4/6 637/4/6
f 632/4/6 636/4/6 638/4/6
f 636/4/6 637/4/6 638/4/6
f 637/4/6 633/4/6 639/4/6
f 638/4/6 637/4/6 639/4/6
f 640/4/6 641/4/6 642/4/6
f 642/4/6 641/4/6 643/4/6
f 640/4/6 642/4/6 644/4/6
f 643/4/6 641/4/6 645/4/6
f 640/4/6 644/4/6 646/4/6
f 644/4/6 645/4/6 646/4/6
f 645/4/6 641/4/6 647/4/6
f 646/4/6 645/4/6 647/4/6
f 648/4/6 649/4/6 650/4/6
f 650/4/6 649/4/6 651/4/6
f 648/4/6 650/4/6 652/4/6
f 651/4/6 649/4/6 653/4/6
f 648/4/6 652/4/6 654/4/6
f 652/4/6 653/4/6 654/4/6
f 653/4/6 649/4/6 655/4/6
f 654/4/6 653/4/6 655/4/6
f 656/4/6 657/4/6 660/4/6
f 660/4/6 657/4/6 661/4/6
f 658/4/6 659/4/6 662/4/6
f 662/4/6 659/4/6 663/4/6
f 664/4/6 665/4/6 666/4/6
f 666/4/6 665/4/6 667/4/6
